<?xml version="1.0" encoding="utf-8"?>
<!-- Generator: Adobe Illustrator 27.0.1, SVG Export Plug-In . SVG Version: 6.00 Build 0)  -->
<svg version="1.1" id="Layer_1" xmlns="http://www.w3.org/2000/svg" xmlns:xlink="http://www.w3.org/1999/xlink" x="0px" y="0px"
	 viewBox="0 0 24 24" style="enable-background:new 0 0 24 24;" xml:space="preserve">
<style type="text/css">
	.st0{fill-rule:evenodd;clip-rule:evenodd;fill:#4ADE80;}
</style>
<path class="st0" d="M9,3.3c2-0.5,4-0.5,5.9,0C17.8,4,20,6.2,20.7,9c0.5,2,0.5,4,0,5.9c-0.7,2.8-2.9,5-5.7,5.7c-2,0.5-4,0.5-5.9,0
	C6.2,20,4,17.8,3.3,15c-0.5-2-0.5-4,0-5.9C4,6.2,6.2,4,9,3.3z M15.1,10.5c0.2-0.2,0.2-0.6,0-0.8c-0.2-0.2-0.6-0.2-0.8,0l-2.9,3.2
	l-1.5-1.5c-0.2-0.2-0.6-0.2-0.8,0c-0.2,0.2-0.2,0.6,0,0.8l1.9,1.9c0.1,0.1,0.3,0.2,0.4,0.2c0.2,0,0.3-0.1,0.4-0.2L15.1,10.5z"/>
</svg>
